<!DOCTYPE svg PUBLIC "-//W3C//DTD SVG 1.1//EN" "http://www.w3.org/Graphics/SVG/1.1/DTD/svg11.dtd">
<svg xmlns="http://www.w3.org/2000/svg" xmlns:xlink="http://www.w3.org/1999/xlink" width="626px" height="222px" version="1.1"><defs/><g transform="translate(0.5,0.5)"><path d="M 305.57 34.43 L 174.14 65.86" fill="none" stroke="#000000" stroke-miterlimit="10" pointer-events="none"/><path d="M 334.14 34.43 L 471.29 65.86" fill="none" stroke="#000000" stroke-miterlimit="10" pointer-events="none"/><ellipse cx="320" cy="20" rx="20" ry="20" fill="none" stroke="#000000" pointer-events="none"/><path d="M 145.57 94.43 L 94.14 125.86" fill="none" stroke="#000000" stroke-miterlimit="10" pointer-events="none"/><path d="M 174.14 94.43 L 225.57 125.86" fill="none" stroke="#000000" stroke-miterlimit="10" pointer-events="none"/><ellipse cx="160" cy="80" rx="20" ry="20" fill="none" stroke="#000000" pointer-events="none"/><path d="M 471.29 94.43 L 418.43 125.86" fill="none" stroke="#000000" stroke-miterlimit="10" pointer-events="none"/><path d="M 498.43 94.43 L 551.29 125.86" fill="none" stroke="#000000" stroke-miterlimit="10" pointer-events="none"/><ellipse cx="485" cy="80" rx="20" ry="20" fill="none" stroke="#000000" pointer-events="none"/><path d="M 65.57 154.43 L 34.14 185.86" fill="none" stroke="#000000" stroke-miterlimit="10" pointer-events="none"/><path d="M 94.14 154.43 L 105.57 185.86" fill="none" stroke="#000000" stroke-miterlimit="10" pointer-events="none"/><ellipse cx="80" cy="140" rx="20" ry="20" fill="none" stroke="#000000" pointer-events="none"/><path d="M 225.57 154.43 L 214.14 185.86" fill="none" stroke="#000000" stroke-miterlimit="10" pointer-events="none"/><path d="M 254.14 154.43 L 267 185.86" fill="none" stroke="#000000" stroke-miterlimit="10" pointer-events="none"/><ellipse cx="240" cy="140" rx="20" ry="20" fill="none" stroke="#000000" pointer-events="none"/><ellipse cx="20" cy="200" rx="20" ry="20" fill="none" stroke="#000000" pointer-events="none"/><ellipse cx="120" cy="200" rx="20" ry="20" fill="none" stroke="#000000" pointer-events="none"/><ellipse cx="200" cy="200" rx="20" ry="20" fill="none" stroke="#000000" pointer-events="none"/><ellipse cx="280" cy="200" rx="20" ry="20" fill="none" stroke="#000000" pointer-events="none"/><path d="M 391.29 154.43 L 358.43 185.86" fill="none" stroke="#000000" stroke-miterlimit="10" pointer-events="none"/><path d="M 418.43 154.43 L 431.29 185.86" fill="none" stroke="#000000" stroke-miterlimit="10" pointer-events="none"/><ellipse cx="405" cy="140" rx="20" ry="20" fill="none" stroke="#000000" pointer-events="none"/><path d="M 551.29 154.43 L 538.43 185.86" fill="none" stroke="#000000" stroke-miterlimit="10" pointer-events="none"/><path d="M 578.43 154.43 L 591.29 185.86" fill="none" stroke="#000000" stroke-miterlimit="10" pointer-events="none"/><ellipse cx="565" cy="140" rx="20" ry="20" fill="none" stroke="#000000" pointer-events="none"/><ellipse cx="345" cy="200" rx="20" ry="20" fill="none" stroke="#000000" pointer-events="none"/><ellipse cx="445" cy="200" rx="20" ry="20" fill="none" stroke="#000000" pointer-events="none"/><ellipse cx="525" cy="200" rx="20" ry="20" fill="none" stroke="#000000" pointer-events="none"/><ellipse cx="605" cy="200" rx="20" ry="20" fill="none" stroke="#000000" pointer-events="none"/></g></svg>