<!DOCTYPE svg PUBLIC "-//W3C//DTD SVG 1.1//EN" "http://www.w3.org/Graphics/SVG/1.1/DTD/svg11.dtd">
<svg xmlns="http://www.w3.org/2000/svg" xmlns:xlink="http://www.w3.org/1999/xlink" width="381px" height="241px" version="1.1"><defs/><g transform="translate(0.5,0.5)"><path d="M 186 34 L 94 86" fill="none" stroke="#000000" stroke-miterlimit="10" pointer-events="none"/><path d="M 200 40 L 200 80" fill="none" stroke="#000000" stroke-miterlimit="10" pointer-events="none"/><path d="M 214 34 L 306 86" fill="none" stroke="#000000" stroke-miterlimit="10" pointer-events="none"/><ellipse cx="200" cy="20" rx="20" ry="20" fill="none" stroke="#000000" pointer-events="none"/><path d="M 66 114 L 34 206" fill="none" stroke="#000000" stroke-miterlimit="10" pointer-events="none"/><path d="M 80 120 L 80 200" fill="none" stroke="#000000" stroke-miterlimit="10" pointer-events="none"/><path d="M 94 114 L 126 206" fill="none" stroke="#000000" stroke-miterlimit="10" pointer-events="none"/><ellipse cx="80" cy="100" rx="20" ry="20" fill="none" stroke="#000000" pointer-events="none"/><ellipse cx="200" cy="100" rx="20" ry="20" fill="none" stroke="#000000" pointer-events="none"/><path d="M 320 120 L 294 206" fill="none" stroke="#000000" stroke-miterlimit="10" pointer-events="none"/><path d="M 320 120 L 346 206" fill="none" stroke="#000000" stroke-miterlimit="10" pointer-events="none"/><ellipse cx="320" cy="100" rx="20" ry="20" fill="none" stroke="#000000" pointer-events="none"/><ellipse cx="20" cy="220" rx="20" ry="20" fill="none" stroke="#000000" pointer-events="none"/><ellipse cx="80" cy="220" rx="20" ry="20" fill="none" stroke="#000000" pointer-events="none"/><ellipse cx="140" cy="220" rx="20" ry="20" fill="none" stroke="#000000" pointer-events="none"/><ellipse cx="280" cy="220" rx="20" ry="20" fill="none" stroke="#000000" pointer-events="none"/><ellipse cx="360" cy="220" rx="20" ry="20" fill="none" stroke="#000000" pointer-events="none"/></g></svg>