<!DOCTYPE svg PUBLIC "-//W3C//DTD SVG 1.1//EN" "http://www.w3.org/Graphics/SVG/1.1/DTD/svg11.dtd">
<svg xmlns="http://www.w3.org/2000/svg" xmlns:xlink="http://www.w3.org/1999/xlink" width="381px" height="241px" version="1.1"><defs/><g transform="translate(0.5,0.5)"><path d="M 94 86 L 173.71 40.95" fill="none" stroke="#000000" stroke-miterlimit="10" pointer-events="none"/><path d="M 185.03 34.55 L 176.91 46.61 L 170.51 35.29 Z" fill="#000000" stroke="#000000" stroke-miterlimit="10" pointer-events="none"/><path d="M 200 80 L 200 54.12" fill="none" stroke="#000000" stroke-miterlimit="10" pointer-events="none"/><path d="M 200 41.12 L 206.5 54.12 L 193.5 54.12 Z" fill="#000000" stroke="#000000" stroke-miterlimit="10" pointer-events="none"/><path d="M 306 86 L 226.29 40.95" fill="none" stroke="#000000" stroke-miterlimit="10" pointer-events="none"/><path d="M 214.97 34.55 L 229.49 35.29 L 223.09 46.61 Z" fill="#000000" stroke="#000000" stroke-miterlimit="10" pointer-events="none"/><ellipse cx="200" cy="20" rx="20" ry="20" fill="none" stroke="#000000" pointer-events="none"/><path d="M 34 206 L 61.36 127.33" fill="none" stroke="#000000" stroke-miterlimit="10" pointer-events="none"/><path d="M 65.63 115.06 L 67.5 129.47 L 55.22 125.2 Z" fill="#000000" stroke="#000000" stroke-miterlimit="10" pointer-events="none"/><path d="M 80 200 L 80 134.12" fill="none" stroke="#000000" stroke-miterlimit="10" pointer-events="none"/><path d="M 80 121.12 L 86.5 134.12 L 73.5 134.12 Z" fill="#000000" stroke="#000000" stroke-miterlimit="10" pointer-events="none"/><path d="M 126 206 L 98.64 127.33" fill="none" stroke="#000000" stroke-miterlimit="10" pointer-events="none"/><path d="M 94.37 115.06 L 104.78 125.2 L 92.5 129.47 Z" fill="#000000" stroke="#000000" stroke-miterlimit="10" pointer-events="none"/><ellipse cx="80" cy="100" rx="20" ry="20" fill="none" stroke="#000000" pointer-events="none"/><ellipse cx="200" cy="100" rx="20" ry="20" fill="none" stroke="#000000" pointer-events="none"/><path d="M 294 206 L 315.91 133.51" fill="none" stroke="#000000" stroke-miterlimit="10" pointer-events="none"/><path d="M 319.68 121.07 L 322.14 135.39 L 309.69 131.63 Z" fill="#000000" stroke="#000000" stroke-miterlimit="10" pointer-events="none"/><path d="M 346 206 L 324.09 133.51" fill="none" stroke="#000000" stroke-miterlimit="10" pointer-events="none"/><path d="M 320.32 121.07 L 330.31 131.63 L 317.86 135.39 Z" fill="#000000" stroke="#000000" stroke-miterlimit="10" pointer-events="none"/><ellipse cx="320" cy="100" rx="20" ry="20" fill="none" stroke="#000000" pointer-events="none"/><ellipse cx="20" cy="220" rx="20" ry="20" fill="none" stroke="#000000" pointer-events="none"/><ellipse cx="80" cy="220" rx="20" ry="20" fill="none" stroke="#000000" pointer-events="none"/><ellipse cx="140" cy="220" rx="20" ry="20" fill="none" stroke="#000000" pointer-events="none"/><ellipse cx="280" cy="220" rx="20" ry="20" fill="none" stroke="#000000" pointer-events="none"/><ellipse cx="360" cy="220" rx="20" ry="20" fill="none" stroke="#000000" pointer-events="none"/></g></svg>