<!DOCTYPE svg PUBLIC "-//W3C//DTD SVG 1.1//EN" "http://www.w3.org/Graphics/SVG/1.1/DTD/svg11.dtd">
<svg xmlns="http://www.w3.org/2000/svg" xmlns:xlink="http://www.w3.org/1999/xlink" width="381px" height="241px" version="1.1"><defs/><g transform="translate(0.5,0.5)"><path d="M 186 34 L 106.29 79.05" fill="none" stroke="#000000" stroke-miterlimit="10" pointer-events="none"/><path d="M 94.97 85.45 L 103.09 73.39 L 109.49 84.71 Z" fill="#000000" stroke="#000000" stroke-miterlimit="10" pointer-events="none"/><path d="M 200 40 L 200 65.88" fill="none" stroke="#000000" stroke-miterlimit="10" pointer-events="none"/><path d="M 200 78.88 L 193.5 65.88 L 206.5 65.88 Z" fill="#000000" stroke="#000000" stroke-miterlimit="10" pointer-events="none"/><path d="M 214 34 L 293.71 79.05" fill="none" stroke="#000000" stroke-miterlimit="10" pointer-events="none"/><path d="M 305.03 85.45 L 290.51 84.71 L 296.91 73.39 Z" fill="#000000" stroke="#000000" stroke-miterlimit="10" pointer-events="none"/><ellipse cx="200" cy="20" rx="20" ry="20" fill="none" stroke="#000000" pointer-events="none"/><path d="M 66 114 L 38.64 192.67" fill="none" stroke="#000000" stroke-miterlimit="10" pointer-events="none"/><path d="M 34.37 204.94 L 32.5 190.53 L 44.78 194.8 Z" fill="#000000" stroke="#000000" stroke-miterlimit="10" pointer-events="none"/><path d="M 80 120 L 80 185.88" fill="none" stroke="#000000" stroke-miterlimit="10" pointer-events="none"/><path d="M 80 198.88 L 73.5 185.88 L 86.5 185.88 Z" fill="#000000" stroke="#000000" stroke-miterlimit="10" pointer-events="none"/><path d="M 94 114 L 121.36 192.67" fill="none" stroke="#000000" stroke-miterlimit="10" pointer-events="none"/><path d="M 125.63 204.94 L 115.22 194.8 L 127.5 190.53 Z" fill="#000000" stroke="#000000" stroke-miterlimit="10" pointer-events="none"/><ellipse cx="80" cy="100" rx="20" ry="20" fill="none" stroke="#000000" pointer-events="none"/><ellipse cx="200" cy="100" rx="20" ry="20" fill="none" stroke="#000000" pointer-events="none"/><path d="M 320 120 L 298.09 192.49" fill="none" stroke="#000000" stroke-miterlimit="10" pointer-events="none"/><path d="M 294.32 204.93 L 291.86 190.61 L 304.31 194.37 Z" fill="#000000" stroke="#000000" stroke-miterlimit="10" pointer-events="none"/><path d="M 320 120 L 341.91 192.49" fill="none" stroke="#000000" stroke-miterlimit="10" pointer-events="none"/><path d="M 345.68 204.93 L 335.69 194.37 L 348.14 190.61 Z" fill="#000000" stroke="#000000" stroke-miterlimit="10" pointer-events="none"/><ellipse cx="320" cy="100" rx="20" ry="20" fill="none" stroke="#000000" pointer-events="none"/><ellipse cx="20" cy="220" rx="20" ry="20" fill="none" stroke="#000000" pointer-events="none"/><ellipse cx="80" cy="220" rx="20" ry="20" fill="none" stroke="#000000" pointer-events="none"/><ellipse cx="140" cy="220" rx="20" ry="20" fill="none" stroke="#000000" pointer-events="none"/><ellipse cx="280" cy="220" rx="20" ry="20" fill="none" stroke="#000000" pointer-events="none"/><ellipse cx="360" cy="220" rx="20" ry="20" fill="none" stroke="#000000" pointer-events="none"/></g></svg>