<!DOCTYPE svg PUBLIC "-//W3C//DTD SVG 1.1//EN" "http://www.w3.org/Graphics/SVG/1.1/DTD/svg11.dtd">
<svg xmlns="http://www.w3.org/2000/svg" xmlns:xlink="http://www.w3.org/1999/xlink" width="331px" height="241px" version="1.1"><defs/><g transform="translate(0.5,0.5)"><path d="M 90 100 L 167 100" fill="none" stroke="#000000" stroke-miterlimit="10" pointer-events="none"/><path d="M 84 114 L 173 206" fill="none" stroke="#000000" stroke-miterlimit="10" pointer-events="none"/><path d="M 50 100 Q 0 100 0 160 Q 0 220 50 220" fill="none" stroke="#000000" stroke-miterlimit="10" stroke-dasharray="3 3" pointer-events="none"/><ellipse cx="70" cy="100" rx="20" ry="20" fill="none" stroke="#000000" pointer-events="none"/><path d="M 90 220 L 167 220" fill="none" stroke="#000000" stroke-miterlimit="10" pointer-events="none"/><ellipse cx="70" cy="220" rx="20" ry="20" fill="none" stroke="#000000" pointer-events="none"/><path d="M 187 120 L 187 200" fill="none" stroke="#000000" stroke-miterlimit="10" pointer-events="none"/><path d="M 207 100 L 290 100" fill="none" stroke="#000000" stroke-miterlimit="10" pointer-events="none"/><path d="M 201 86 L 296 34" fill="none" stroke="#000000" stroke-miterlimit="10" pointer-events="none"/><ellipse cx="187" cy="100" rx="20" ry="20" fill="none" stroke="#000000" pointer-events="none"/><path d="M 201 206 L 296 114" fill="none" stroke="#000000" stroke-miterlimit="10" pointer-events="none"/><ellipse cx="187" cy="220" rx="20" ry="20" fill="none" stroke="#000000" pointer-events="none"/><path d="M 310 80 L 310 40" fill="none" stroke="#000000" stroke-miterlimit="10" pointer-events="none"/><ellipse cx="310" cy="100" rx="20" ry="20" fill="none" stroke="#000000" pointer-events="none"/><ellipse cx="310" cy="20" rx="20" ry="20" fill="none" stroke="#000000" pointer-events="none"/></g></svg>