<!DOCTYPE svg PUBLIC "-//W3C//DTD SVG 1.1//EN" "http://www.w3.org/Graphics/SVG/1.1/DTD/svg11.dtd">
<svg xmlns="http://www.w3.org/2000/svg" xmlns:xlink="http://www.w3.org/1999/xlink" width="371px" height="161px" version="1.1"><defs/><g transform="translate(0.5,0.5)"><path d="M 66 34 L 34 66" fill="none" stroke="#000000" stroke-miterlimit="10" pointer-events="none"/><ellipse cx="80" cy="20" rx="20" ry="20" fill="none" stroke="#000000" pointer-events="none"/><ellipse cx="20" cy="80" rx="20" ry="20" fill="none" stroke="#000000" pointer-events="none"/><ellipse cx="200" cy="20" rx="20" ry="20" fill="none" stroke="#000000" pointer-events="none"/><path d="M 154 66 L 186 34" fill="none" stroke="#000000" stroke-miterlimit="10" pointer-events="none"/><path d="M 126 94 L 94 126" fill="none" stroke="#000000" stroke-miterlimit="10" pointer-events="none"/><path d="M 154 94 L 186 126" fill="none" stroke="#000000" stroke-miterlimit="10" pointer-events="none"/><ellipse cx="140" cy="80" rx="20" ry="20" fill="none" stroke="#000000" pointer-events="none"/><ellipse cx="80" cy="140" rx="20" ry="20" fill="none" stroke="#000000" pointer-events="none"/><path d="M 220 140 L 270 140" fill="none" stroke="#000000" stroke-miterlimit="10" pointer-events="none"/><ellipse cx="200" cy="140" rx="20" ry="20" fill="none" stroke="#000000" pointer-events="none"/><path d="M 290 120 L 290 40" fill="none" stroke="#000000" stroke-miterlimit="10" pointer-events="none"/><path d="M 304 126 L 336 84" fill="none" stroke="#000000" stroke-miterlimit="10" pointer-events="none"/><ellipse cx="290" cy="140" rx="20" ry="20" fill="none" stroke="#000000" pointer-events="none"/><ellipse cx="290" cy="20" rx="20" ry="20" fill="none" stroke="#000000" pointer-events="none"/><ellipse cx="350" cy="70" rx="20" ry="20" fill="none" stroke="#000000" pointer-events="none"/></g></svg>