<?xml version="1.0" encoding="UTF-8" standalone="no"?>
<!DOCTYPE svg PUBLIC "-//W3C//DTD SVG 1.1//EN"
 "http://www.w3.org/Graphics/SVG/1.1/DTD/svg11.dtd">
<!-- Generated by graphviz version 2.38.0 (20140413.2041)
 -->
<!-- Title: %3 Pages: 1 -->
<svg width="205pt" height="57pt"
 viewBox="0.00 0.00 204.70 57.44" xmlns="http://www.w3.org/2000/svg" xmlns:xlink="http://www.w3.org/1999/xlink">
<g id="graph0" class="graph" transform="scale(1 1) rotate(0) translate(102.233 29.4656)">
<title>%3</title>
<polygon fill="white" stroke="none" points="-102.233,27.9707 -102.233,-29.4656 102.469,-29.4656 102.469,27.9707 -102.233,27.9707"/>
<!-- a -->
<g id="node1" class="node"><title>a</title>
<ellipse fill="none" stroke="black" cx="-71.2328" cy="5.97072" rx="27" ry="18"/>
<text text-anchor="middle" x="-71.2328" y="9.67072" font-family="Times New Roman,serif" font-size="14.00">a</text>
</g>
<!-- b -->
<g id="node2" class="node"><title>b</title>
<ellipse fill="none" stroke="black" cx="-0.235702" cy="-7.46561" rx="27" ry="18"/>
<text text-anchor="middle" x="-0.235702" y="-3.76561" font-family="Times New Roman,serif" font-size="14.00">b</text>
</g>
<!-- a&#45;&gt;b -->
<g id="edge1" class="edge"><title>a&#45;&gt;b</title>
<path fill="none" stroke="black" d="M-45.1992,1.04382C-42.3053,0.496134 -39.3208,-0.068684 -36.3307,-0.63457"/>
<polygon fill="black" stroke="black" points="-36.7426,-4.11868 -26.2661,-2.53931 -35.4408,2.75924 -36.7426,-4.11868"/>
</g>
<!-- c -->
<g id="node3" class="node"><title>c</title>
<ellipse fill="none" stroke="black" cx="71.4685" cy="1.4949" rx="27" ry="18"/>
<text text-anchor="middle" x="71.4685" y="5.1949" font-family="Times New Roman,serif" font-size="14.00">c</text>
</g>
<!-- c&#45;&gt;b -->
<g id="edge2" class="edge"><title>c&#45;&gt;b</title>
<path fill="none" stroke="black" d="M44.7685,-1.84167C42.1903,-2.16385 39.5445,-2.49449 36.8893,-2.82629"/>
<polygon fill="black" stroke="black" points="36.2145,0.616698 26.7257,-4.09638 37.0826,-6.32928 36.2145,0.616698"/>
</g>
</g>
</svg>
