<?xml version="1.0" encoding="UTF-8" standalone="no"?>
<!DOCTYPE svg PUBLIC "-//W3C//DTD SVG 1.1//EN"
 "http://www.w3.org/Graphics/SVG/1.1/DTD/svg11.dtd">
<!-- Generated by graphviz version 2.38.0 (20140413.2041)
 -->
<!-- Title: %3 Pages: 1 -->
<svg width="205pt" height="57pt"
 viewBox="0.00 0.00 204.70 57.44" xmlns="http://www.w3.org/2000/svg" xmlns:xlink="http://www.w3.org/1999/xlink">
<g id="graph0" class="graph" transform="scale(1 1) rotate(0) translate(102.233 29.4656)">
<title>%3</title>
<polygon fill="white" stroke="none" points="-102.233,27.9707 -102.233,-29.4656 102.469,-29.4656 102.469,27.9707 -102.233,27.9707"/>
<!-- a -->
<g id="node1" class="node"><title>a</title>
<ellipse fill="none" stroke="black" cx="-71.2328" cy="5.97072" rx="27" ry="18"/>
<text text-anchor="middle" x="-71.2328" y="9.67072" font-family="Times New Roman,serif" font-size="14.00">a</text>
</g>
<!-- b -->
<g id="node2" class="node"><title>b</title>
<ellipse fill="none" stroke="black" cx="-0.235702" cy="-7.46561" rx="27" ry="18"/>
<text text-anchor="middle" x="-0.235702" y="-3.76561" font-family="Times New Roman,serif" font-size="14.00">b</text>
</g>
<!-- a&#45;&gt;b -->
<g id="edge1" class="edge"><title>a&#45;&gt;b</title>
<path fill="none" stroke="black" d="M-49.1719,-4.69679C-45.3687,-5.66281 -41.3245,-6.55391 -37.2537,-7.32954"/>
<polygon fill="black" stroke="black" points="-37.6397,-10.8133 -27.2018,-8.99663 -36.4944,-3.90758 -37.6397,-10.8133"/>
</g>
<!-- b&#45;&gt;a -->
<g id="edge2" class="edge"><title>b&#45;&gt;a</title>
<path fill="none" stroke="black" d="M-22.2966,3.20189C-26.0998,4.16791 -30.144,5.05901 -34.2148,5.83464"/>
<polygon fill="black" stroke="black" points="-33.8288,9.31835 -44.2667,7.50173 -34.9741,2.41268 -33.8288,9.31835"/>
</g>
<!-- c -->
<g id="node3" class="node"><title>c</title>
<ellipse fill="none" stroke="black" cx="71.4685" cy="1.4949" rx="27" ry="18"/>
<text text-anchor="middle" x="71.4685" y="5.1949" font-family="Times New Roman,serif" font-size="14.00">c</text>
</g>
<!-- b&#45;&gt;c -->
<g id="edge4" class="edge"><title>b&#45;&gt;c</title>
<path fill="none" stroke="black" d="M26.4587,-10.6931C30.2322,-10.4059 34.1505,-9.99405 38.031,-9.48025"/>
<polygon fill="black" stroke="black" points="38.7544,-12.9096 48.0889,-7.89788 37.6665,-5.99464 38.7544,-12.9096"/>
</g>
<!-- c&#45;&gt;b -->
<g id="edge3" class="edge"><title>c&#45;&gt;b</title>
<path fill="none" stroke="black" d="M44.7741,4.72238C41.0006,4.43523 37.0823,4.02333 33.2018,3.50953"/>
<polygon fill="black" stroke="black" points="32.4784,6.93887 23.1439,1.92717 33.5663,0.0239213 32.4784,6.93887"/>
</g>
</g>
</svg>
