<?xml version="1.0" encoding="UTF-8" standalone="no"?>
<!DOCTYPE svg PUBLIC "-//W3C//DTD SVG 1.1//EN"
 "http://www.w3.org/Graphics/SVG/1.1/DTD/svg11.dtd">
<!-- Generated by graphviz version 2.38.0 (20140413.2041)
 -->
<!-- Title: %3 Pages: 1 -->
<svg width="134pt" height="107pt"
 viewBox="0.00 0.00 134.20 106.80" xmlns="http://www.w3.org/2000/svg" xmlns:xlink="http://www.w3.org/1999/xlink">
<g id="graph0" class="graph" transform="scale(1 1) rotate(0) translate(66.7023 63.4412)">
<title>%3</title>
<polygon fill="white" stroke="none" points="-66.7023,43.3613 -66.7023,-63.4412 67.4938,-63.4412 67.4938,43.3613 -66.7023,43.3613"/>
<!-- a -->
<g id="node1" class="node"><title>a</title>
<ellipse fill="none" stroke="black" cx="-35.7023" cy="21.3613" rx="27" ry="18"/>
<text text-anchor="middle" x="-35.7023" y="25.0613" font-family="Times New Roman,serif" font-size="14.00">a</text>
</g>
<!-- b -->
<g id="node2" class="node"><title>b</title>
<ellipse fill="none" stroke="black" cx="-0.791485" cy="-41.4412" rx="27" ry="18"/>
<text text-anchor="middle" x="-0.791485" y="-37.7412" font-family="Times New Roman,serif" font-size="14.00">b</text>
</g>
<!-- a&#45;&#45;b -->
<g id="edge1" class="edge"><title>a&#45;&#45;b</title>
<path fill="none" stroke="black" d="M-26.1628,4.20028C-21.2368,-4.66124 -15.2438,-15.4423 -10.3195,-24.3009"/>
<text text-anchor="middle" x="-21.7411" y="1.14971" font-family="Times New Roman,serif" font-size="14.00">1</text>
</g>
<!-- c -->
<g id="node3" class="node"><title>c</title>
<ellipse fill="none" stroke="black" cx="36.4938" cy="20.0798" rx="27" ry="18"/>
<text text-anchor="middle" x="36.4938" y="23.7798" font-family="Times New Roman,serif" font-size="14.00">c</text>
</g>
<!-- a&#45;&#45;c -->
<g id="edge3" class="edge"><title>a&#45;&#45;c</title>
<path fill="none" stroke="black" d="M-8.40805,20.8769C-2.65799,20.7748 3.40947,20.6671 9.16094,20.565"/>
<text text-anchor="middle" x="-3.12356" y="16.9209" font-family="Times New Roman,serif" font-size="14.00">7</text>
</g>
<!-- b&#45;&#45;c -->
<g id="edge2" class="edge"><title>b&#45;&#45;c</title>
<path fill="none" stroke="black" d="M9.39688,-24.6303C14.6579,-15.9496 21.0585,-5.38849 26.3177,3.28927"/>
<text text-anchor="middle" x="14.3573" y="-14.4705" font-family="Times New Roman,serif" font-size="14.00">3</text>
</g>
</g>
</svg>
